<?xml version="1.0" encoding="utf-8"?>
<svg width="92" height="37" viewBox="0 0 92 37" fill="none" xmlns="http://www.w3.org/2000/svg">
  <g>
    <rect width="92" height="37" fill="#FFFFFF" fill-rule="evenodd" fill-opacity="0" />
    <path d="M46.883 9.8302C46.883 4.11806 44.027 0 33.734 0C33.734 0 16.336 0 16.336 0C3.65201 0 0 3.52027 0 14.0147C0 14.0147 0 22.3172 0 22.3172C0 31.8817 4.44901 35.9998 15.871 35.9998C15.871 35.9998 38.956 35.8614 38.956 35.8614C38.956 35.8614 34.805 28.4943 34.805 28.4943C34.805 28.4943 15.871 28.4943 15.871 28.4943C11.223 28.4943 9.89499 27.6972 9.89499 23.3135C9.89499 23.3135 9.89499 21.653 9.89499 21.653C9.89499 21.653 46.883 21.653 46.883 21.653C46.883 21.653 46.883 21.653 46.883 21.653C46.883 21.653 46.883 21.653 46.883 21.653C46.883 21.653 46.883 9.8302 46.883 9.8302ZM9.89502 15.2766C9.89502 15.2766 9.89502 13.3504 9.89502 13.3504C9.89502 8.16967 11.488 7.63831 16.469 7.63831C16.469 7.63831 32.938 7.63831 32.938 7.63831C35.926 7.63831 36.988 8.23609 36.988 10.6272C36.988 10.6272 36.988 15.2766 36.988 15.2766C36.988 15.2766 36.988 15.2766 36.988 15.2766C36.988 15.2766 36.988 15.2766 36.988 15.2766C36.988 15.2766 9.89502 15.2766 9.89502 15.2766ZM79.7 6.64689C83.073 6.64689 84.111 7.22718 84.111 9.39006C84.111 9.39006 84.111 11.6057 84.111 11.6057C84.111 13.9796 83.229 14.7181 80.478 14.7181C80.478 14.7181 50.012 14.7181 50.012 14.7181C50.012 14.7181 50.012 20.7847 50.012 20.7847C50.012 20.7847 80.686 20.7847 80.686 20.7847C83.54 20.7847 84.63 21.4705 84.63 24.4247C84.63 24.4247 84.63 26.5348 84.63 26.5348C84.63 28.8032 83.385 29.3307 80.426 29.3307C80.426 29.3307 49.805 29.3307 49.805 29.3307C49.805 29.3307 49.805 35.9776 49.805 35.9776C49.805 35.9776 80.582 35.9776 80.582 35.9776C88.938 35.9776 92 33.7093 92 27.9064C92 27.9064 92 25.005 92 25.005C92 19.8352 90.184 18.1471 87.641 17.514C89.872 16.881 91.533 15.3512 91.533 11.1309C91.533 11.1309 91.533 8.4405 91.533 8.4405C91.533 2.37389 88.419 0 79.907 0C79.907 0 58.464 0.149452 58.464 0.149452C58.464 0.149452 54.082 6.6469 54.082 6.6469L79.7 6.64689C79.7 6.64689 79.7 6.64689 79.7 6.64689C79.7 6.64689 79.7 6.64689 79.7 6.64689Z" fill="#FE5000" fill-rule="evenodd" transform="translate(0 1)" />
  </g>
</svg>