<?xml version="1.0" encoding="utf-8"?>
<svg width="100px" height="32px" viewBox="0 0 100 32" version="1.1" xmlns:xlink="http://www.w3.org/1999/xlink" xmlns="http://www.w3.org/2000/svg">
  <g id="eazybackup-logo">
    <g id="eazybackup-logo">
      <path d="M0 0L100 0L100 32L0 32L0 0L0 0Z" id="Background" fill="none" stroke="none" />
      <path d="M70.7759 20.1842L71.0562 20.1842C71.7292 20.1842 72.2146 19.8852 72.2146 18.9323L72.2146 15.9238L75.0739 19.3807C75.541 20.016 76.0826 20.2216 76.5688 20.2216C77.4096 20.2216 78.0826 19.4555 78.0074 19.3247L74.7563 15.3445L77.6337 11.7755C77.7089 11.6447 77.0731 10.8785 76.2323 10.8785C75.7651 10.8785 75.2045 11.1028 74.7746 11.7194L72.2146 14.9521L72.2146 9.23415C72.2146 7.53371 71.3555 7.12262 70.5701 7.12262C70.0474 7.12262 69.5803 7.32817 69.5803 7.4216L69.5803 18.9323C69.5803 19.9039 70.0657 20.1842 70.7759 20.1842L70.7759 20.1842ZM40.5696 20.1095L44.4937 20.1095C47.8946 20.1095 49.3708 19.007 49.3708 16.6712C49.3708 15.2137 48.5486 14.0925 46.7547 13.6815C48.1562 13.289 48.9223 12.4669 48.9223 11.1028C48.9223 9.12204 47.4461 8.01956 44.7179 8.01956L40.5696 8.01956C39.6727 8.01956 39.1308 8.58014 39.1308 9.55182L39.1308 18.5772C39.1308 19.5489 39.6727 20.1095 40.5696 20.1095L40.5696 20.1095ZM41.859 13.1022L41.859 10.075L44.0639 10.075C45.4093 10.075 46.082 10.5609 46.082 11.5512C46.082 12.5229 45.3346 13.1022 44.0639 13.1022L41.859 13.1022L41.859 13.1022ZM5.51065 20.3524C8.05197 20.3524 9.45343 19.2499 9.45343 18.2596C9.45343 17.2131 8.20146 17.045 8.18277 17.0823C7.75299 17.8111 6.98686 18.4277 5.60408 18.4277C4.18394 18.4277 3.13751 17.6242 2.95065 16.2601L9.24788 16.2601C9.73372 16.2601 9.86452 15.9985 9.88321 15.5314L9.88321 15.3445C9.88321 12.6724 8.03328 10.7851 5.34248 10.7851C2.57693 10.7851 0.577515 12.8406 0.577515 15.6248C0.577515 18.5025 2.53956 20.3524 5.51065 20.3524L5.51065 20.3524ZM13.5192 20.315C14.8646 20.315 16.0231 19.7544 16.6772 18.8014C16.8266 19.7918 17.3872 20.2403 18.2281 20.2403C18.7326 20.2403 19.2185 20.0721 19.2185 19.9413L19.2185 14.541C19.2185 12.0931 17.7983 10.7851 14.9207 10.7851C12.1364 10.7851 10.791 11.9063 10.791 13.0461C10.791 14.2607 12.4915 14.2047 12.4915 14.1673C12.8278 13.4572 13.4818 12.7658 14.7525 12.7658C15.9671 12.7658 16.6211 13.4012 16.6211 14.5784L16.3221 14.5784C12.3233 14.6344 10.4547 15.5874 10.4547 17.6803C10.4547 19.2312 11.6132 20.315 13.5192 20.315L13.5192 20.315ZM56.3664 18.8014C55.7124 19.7544 54.554 20.315 53.2087 20.315C51.3029 20.315 50.1441 19.2312 50.1441 17.6803C50.1441 15.5874 52.0124 14.6344 56.0117 14.5784L56.3102 14.5784C56.3102 13.4012 55.6562 12.7658 54.4416 12.7658C53.1715 12.7658 52.5175 13.4572 52.181 14.1673C52.181 14.2047 50.4803 14.2607 50.4803 13.0461C50.4803 11.9063 51.8255 10.7851 54.6102 10.7851C57.4876 10.7851 58.908 12.0931 58.908 14.541L58.908 19.9413C58.908 20.0721 58.4219 20.2403 57.9175 20.2403C57.0766 20.2403 56.516 19.7918 56.3664 18.8014L56.3664 18.8014ZM90.4016 23.7533L90.6819 23.7533C91.3549 23.7533 91.8403 23.4356 91.8403 22.4826L91.8403 18.6893C92.3074 19.605 93.3542 20.3524 94.7556 20.3524C97.2782 20.3524 99.0162 18.3904 99.0162 15.5501C99.0162 12.635 97.2593 10.7851 94.7928 10.7851C93.4104 10.7851 92.3826 11.4391 91.8031 12.4855C91.6352 11.2336 90.8877 10.8972 90.1965 10.8972C89.6731 10.8972 89.206 11.1215 89.206 11.1962L89.206 22.4826C89.206 23.4543 89.6914 23.7533 90.4016 23.7533L90.4016 23.7533ZM68.6 17.9045C68.6 18.7641 67.4416 20.3524 64.7131 20.3524C61.8912 20.3524 59.9109 18.3717 59.9109 15.5501C59.9109 12.7845 61.9292 10.8038 64.7131 10.8038C67.4971 10.8038 68.6 12.3921 68.6 13.2704C68.6 14.3355 67.1985 14.5223 67.1423 14.4289C66.7876 13.5506 66.1146 12.9153 64.8256 12.9153C63.3861 12.9153 62.3401 14.0178 62.3401 15.5501C62.3401 17.1197 63.3861 18.2409 64.8256 18.2409C66.0774 18.2409 66.7876 17.6055 67.1423 16.7273C67.1796 16.6152 68.6 16.7833 68.6 17.9045L68.6 17.9045ZM34.1224 22.4079C33.73 23.3982 33.2068 23.6972 32.6275 23.6972C31.8614 23.6972 31.1513 23.0993 31.2261 22.9685L32.7396 19.5302C32.3098 19.4741 32.0482 19.306 31.8801 18.9323L28.7408 11.6633C28.6847 11.5139 29.3761 10.8972 30.1796 10.8785C30.7963 10.8785 31.3382 11.1775 31.6558 12.2052L33.6366 17.4187L35.3931 12.2239C35.7107 11.1962 36.2713 10.8785 36.8506 10.8785C37.598 10.8785 38.3268 11.4952 38.2707 11.626L34.1224 22.4079L34.1224 22.4079ZM87.6396 19.8852C87.6396 19.9787 87.1907 20.1842 86.649 20.1842C85.995 20.1842 85.2658 19.9039 85.0607 18.7454C84.425 19.6797 83.4907 20.3524 82.0709 20.3524C79.679 20.3524 78.6885 18.6706 78.6885 16.5778L78.6885 12.1679C78.6885 11.2149 79.1746 10.8972 79.8469 10.8972L80.1271 10.8972C80.8191 10.8972 81.3235 11.1962 81.3235 12.1679L81.3235 16.1854C81.3235 17.4 81.9403 18.1474 83.0425 18.1474C83.9206 18.1474 84.6308 17.6616 85.0045 16.9515L85.0045 12.1679C85.0045 11.2149 85.4907 10.8972 86.1819 10.8972L86.4432 10.8972C87.1534 10.8972 87.6396 11.1962 87.6396 12.1679L87.6396 19.8852L87.6396 19.8852ZM21.2679 20.1095L27.3782 20.1095C28.107 20.1095 28.4434 19.7731 28.4434 19.1378L28.4434 19.0257C28.4434 18.3717 28.107 18.0727 27.3782 18.0727L23.5102 18.0727L27.6959 13.2517C28.107 12.8032 28.2752 12.5977 28.2752 12.0371L28.2752 11.9063C28.2752 11.4391 27.9762 10.9906 27.2661 10.9906L21.3987 10.9906C20.6699 10.9906 20.3336 11.327 20.3336 11.9436L20.3336 12.0744C20.3336 12.7285 20.6699 13.0274 21.3987 13.0274L24.9304 13.0274L20.8568 17.7737C20.4457 18.2409 20.2775 18.4277 20.2775 19.0257L20.2775 19.1752C20.2775 19.6423 20.5578 20.1095 21.2679 20.1095L21.2679 20.1095ZM7.43533 14.7279C7.37927 13.4572 6.57577 12.6163 5.30511 12.6163C4.07183 12.6163 3.13752 13.4946 2.95066 14.7279L7.43533 14.7279L7.43533 14.7279ZM91.8403 16.1667C91.8782 17.4 92.868 18.2596 94.1206 18.2596C95.5403 18.2596 96.4746 17.1758 96.4746 15.5687C96.4746 13.9804 95.522 12.8966 94.1388 12.8966C93.0366 12.8966 92.233 13.4759 91.8403 14.3915L91.8403 16.1667L91.8403 16.1667ZM41.859 14.8587L41.859 18.054L44.2134 18.054C45.8578 18.054 46.5492 17.5682 46.5492 16.4096C46.5492 15.3445 45.8018 14.8587 44.2321 14.8587L41.859 14.8587L41.859 14.8587ZM12.9773 17.4934C12.9773 18.1661 13.5192 18.5959 14.3974 18.5959C15.7055 18.5959 16.6211 17.7363 16.6211 16.5404L16.6211 16.0172L16.1353 16.0359C14.0611 16.092 12.9773 16.5031 12.9773 17.4934L12.9773 17.4934ZM54.0869 18.5959C53.2088 18.5959 52.6664 18.1661 52.6664 17.4934C52.6664 16.5031 53.7504 16.092 55.8248 16.0359L56.3102 16.0172L56.3102 16.5404C56.3102 17.7363 55.3949 18.5959 54.0869 18.5959L54.0869 18.5959Z" id="Group" fill="#FEFEFE" fill-rule="evenodd" stroke="none" />
    </g>
  </g>
</svg>