<?xml version="1.0" encoding="utf-8"?>
<svg width="40px" height="40px" viewBox="0 0 40 40" version="1.1" xmlns:xlink="http://www.w3.org/1999/xlink" xmlns="http://www.w3.org/2000/svg">
  <g id="logo-drk-orange">
    <path d="M0 0L40 0L40 40L0 40L0 0L0 0Z" id="Background" fill="#FFFFFF" fill-opacity="0" fill-rule="evenodd" stroke="none" />
    <path d="M0 0L15.625 0L15.625 15.625L0 15.625L0 0L0 0Z" id="backgroundrect" fill="none" fill-rule="evenodd" stroke="none" />
    <g id="Group" transform="translate(0 0.26666665)">
      <path d="M19.2995 0.11558C21.1191 0.500205 22.7283 1.69986 23.6334 3.32995C23.7981 3.63213 24.1089 4.3556 24.3192 4.93253C24.5295 5.50947 24.7216 6.01315 24.7398 6.04979C24.7672 6.0864 25.197 5.9124 25.6908 5.66515C27.108 4.95085 27.8485 4.73107 29.028 4.67611C29.86 4.63949 30.1709 4.66696 30.8109 4.83179C32.7312 5.308 34.3037 6.59008 35.1448 8.34837C35.6112 9.30992 35.7667 9.96928 35.8123 11.2056C35.8672 12.5243 35.7027 13.3394 35.0811 14.8228L34.6787 15.7844L35.9221 16.3889C37.6501 17.2405 38.5645 18.0922 39.3051 19.5666C39.808 20.5739 39.9907 21.4073 40 22.7442C40 24.1362 39.808 24.9422 39.2139 26.0869C38.464 27.5429 37.4307 28.5229 35.8397 29.3104C35.3096 29.5667 34.8707 29.7867 34.8613 29.7867C34.8523 29.7957 34.9072 30.1069 34.9896 30.4824C35.0717 30.8947 35.1357 31.6456 35.1357 32.3597C35.1357 33.3947 35.1083 33.6603 34.8888 34.3744C33.9837 37.3784 31.5149 39.3747 28.5251 39.5213C27.2907 39.5763 26.4587 39.4115 25.3708 38.8712C24.2919 38.3397 23.5786 37.6715 22.6551 36.3709C22.262 35.8032 21.9145 35.336 21.8872 35.336C21.8689 35.336 21.4483 35.6475 20.9545 36.0323C19.9122 36.8565 18.7327 37.4608 17.7634 37.6805C16.7486 37.9003 15.1942 37.8179 14.225 37.4883C12.6707 36.948 11.354 35.7573 10.5951 34.1915C10.1197 33.2024 9.93683 32.4605 9.78139 30.8579C9.72653 30.3269 9.6808 29.8965 9.66251 29.8781C9.65339 29.8691 9.13221 29.9605 8.50133 30.0888C5.78576 30.6291 3.66451 30.0523 1.9913 28.3213C0.418645 26.6731 -0.239673 24.3011 0.235778 21.9842C0.528365 20.5647 1.05868 19.5941 2.27473 18.2478L3.08848 17.3505L2.28387 16.4987C1.35126 15.5097 0.894096 14.8595 0.528365 13.9895C-0.193956 12.2495 -0.17567 10.0059 0.583224 8.27509C1.20497 6.88312 2.45759 5.51864 3.72851 4.85928C4.81659 4.29149 5.69432 4.07171 6.90125 4.07171C8.10816 4.07171 8.65677 4.19992 10.0648 4.84096C10.6226 5.09739 11.098 5.28968 11.1072 5.28053C11.1255 5.26221 11.3632 4.79517 11.6375 4.23656C12.4329 2.64311 13.3838 1.58081 14.673 0.857347C15.2399 0.536829 16.1359 0.207158 16.7759 0.0789392C17.3703 -0.0401077 18.6503 -0.0217952 19.2995 0.11558L19.2995 0.11558L19.2995 0.11558Z" id="svg_1" fill="#FC4300" fill-rule="evenodd" stroke="none" />
      <path d="M27.2088 20.175C28.4888 20.175 29.6888 19.815 29.6888 17.175C29.6888 14.175 26.6888 8.93501 19.8888 8.93501C13.8888 8.93501 8.64876 13.415 8.64876 19.575C8.64876 24.735 12.3688 29.9349 19.5688 29.9349C23.1688 29.9349 28.8088 27.6949 28.8088 24.615C28.8088 23.855 28.0888 22.615 27.2488 22.615C26.4088 22.615 24.9288 24.415 21.9288 24.415C20.0488 24.415 17.4488 22.735 17.4488 20.735C17.4488 20.055 18.0888 20.175 18.5288 20.175L27.2088 20.175L27.2088 20.175L27.2088 20.175ZM19.6488 16.335C18.6088 16.335 17.2488 16.655 17.2488 15.215C17.2488 13.935 18.3288 12.575 19.6488 12.575C21.1288 12.575 22.0088 13.695 22.0088 15.135C22.0088 16.575 20.7288 16.335 19.6488 16.335L19.6488 16.335L19.6488 16.335Z" id="svg_2" fill="#FFFFFF" fill-rule="evenodd" stroke="none" />
    </g>
  </g>
</svg>