<svg xmlns="http://www.w3.org/2000/svg" width="256" height="253" fill="none"><rect id="backgroundrect" width="100%" height="100%" x="0" y="0" fill="none" stroke="none" class="" style=""/>



<g class="currentLayer" style=""><title>Layer 1</title><path fill-rule="evenodd" clip-rule="evenodd" d="M123.51700047683715,0.7397106692314142 C135.16200047683716,3.2013106692314146 145.46100047683717,10.879110669231416 151.25400047683715,21.311610669231413 C152.30800047683715,23.245710669231414 154.29700047683716,27.875810669231413 155.64300047683716,31.568210669231412 C156.98900047683716,35.26061066923141 158.21800047683715,38.48411066923141 158.33500047683717,38.71861066923142 C158.51000047683715,38.95301066923142 161.26100047683715,37.83941066923141 164.42100047683715,36.25701066923141 C173.49100047683717,31.685410669231416 178.23100047683715,30.27881066923141 185.77900047683715,29.927110669231418 C191.10400047683717,29.692710669231417 193.09400047683715,29.868510669231412 197.19000047683716,30.923510669231412 C209.47900047683717,33.97121066923142 219.54400047683717,42.17651066923141 224.92700047683715,53.42951066923142 C227.91200047683716,59.583510669231416 228.90700047683717,63.80341066923141 229.19900047683717,71.71561066923141 C229.55000047683717,80.15541066923141 228.49700047683717,85.37201066923141 224.51800047683716,94.86601066923141 L221.94300047683717,101.02001066923143 L229.90100047683717,104.88901066923141 C240.96100047683717,110.33901066923141 246.81300047683715,115.7900106692314 251.55300047683716,125.22601066923141 C254.77100047683714,131.67301066923142 255.94100047683716,137.00701066923142 256.00000047683716,145.5630106692314 C256.00000047683716,154.47201066923142 254.77100047683714,159.6300106692314 250.96800047683715,166.9560106692314 C246.16900047683717,176.27501066923142 239.55700047683715,182.5460106692314 229.37500047683716,187.58601066923143 C225.98100047683715,189.22701066923142 223.17200047683716,190.6340106692314 223.11300047683716,190.6340106692314 C223.05500047683717,190.69301066923143 223.40600047683716,192.68501066923142 223.93300047683715,195.0880106692314 C224.45900047683716,197.7260106692314 224.86900047683716,202.53201066923143 224.86900047683716,207.10301066923142 C224.86900047683716,213.7260106692314 224.69300047683717,215.4260106692314 223.28900047683715,219.99701066923143 C217.49600047683717,239.22101066923142 201.69600047683716,251.9980106692314 182.56100047683717,252.9360106692314 C174.66100047683716,253.28801066923143 169.33600047683717,252.23301066923142 162.37300047683715,248.7750106692314 C155.46800047683715,245.37501066923141 150.90300047683715,241.0970106692314 144.99300047683715,232.77401066923142 C142.47700047683716,229.1400106692314 140.25300047683714,226.15101066923143 140.07800047683716,226.15101066923143 C139.96100047683717,226.15101066923143 137.26900047683716,228.14401066923142 134.10900047683717,230.6060106692314 C127.43800047683716,235.88101066923142 119.88900047683715,239.74901066923144 113.68600047683717,241.1550106692314 C107.19100047683716,242.56201066923143 97.24300047683715,242.03501066923144 91.04020047683716,239.92501066923143 C81.09230047683715,236.46701066923143 72.66580047683716,228.84701066923142 67.80890047683715,218.8250106692314 C64.76600047683716,212.49501066923142 63.59570047683716,207.7480106692314 62.60090047683716,197.49101066923143 C62.24980047683716,194.09201066923143 61.95720047683716,191.3370106692314 61.84010047683716,191.2200106692314 C61.781600476837156,191.16201066923142 58.446200476837156,191.7480106692314 54.408500476837155,192.56801066923143 C37.02890047683716,196.02601066923143 23.452900476837158,192.33401066923142 12.744300476837159,181.25701066923142 C2.6793304768371584,170.7070106692314 -1.533909523162842,155.5270106692314 1.5089804768371582,140.69901066923143 C3.3815304768371583,131.61401066923142 6.775530476837158,125.4020106692314 14.558300476837157,116.78601066923142 L19.76630047683716,111.04301066923142 L14.616800476837158,105.59201066923141 C8.648070476837159,99.26201066923142 5.722220476837158,95.10101066923141 3.3815304768371583,89.53301066923142 C-1.2413195231628418,78.39711066923141 -1.1242895231628418,64.03781066923142 3.7326304768371585,52.960610669231414 C7.711800476837158,44.052010669231414 15.728600476837158,35.31921066923142 23.86250047683716,31.099310669231414 C30.82610047683716,27.465510669231413 36.44370047683716,26.058910669231416 44.16800047683716,26.058910669231416 C51.89220047683716,26.058910669231416 55.40330047683716,26.879510669231415 64.41490047683716,30.982110669231414 C67.98440047683715,32.62321066923141 71.02730047683715,33.854010669231414 71.08590047683715,33.795410669231416 C71.20290047683716,33.678110669231415 72.72430047683716,30.689110669231418 74.47990047683716,27.113910669231416 C79.57080047683716,16.915910669231415 85.65660047683716,10.117210669231415 93.90750047683716,5.487010669231413 C97.53560047683716,3.4357106692314154 103.27000047683715,1.3258106692314158 107.36600047683716,0.5052106692314132 C111.17000047683716,-0.25668933076858397 119.36200047683715,-0.13948933076858339 123.51700047683715,0.7397106692314142 z" fill="#fc4300" id="svg_1" class="" fill-opacity="1"/><path d="M174.13600047683715,129.12001066923142 C182.32800047683716,129.12001066923142 190.00800047683717,126.81601066923142 190.00800047683717,109.9200106692314 C190.00800047683717,90.72001066923141 170.80800047683715,57.18401066923141 127.28800047683715,57.18401066923141 C88.88800047683716,57.18401066923141 55.352000476837155,85.85601066923141 55.352000476837155,125.28001066923142 C55.352000476837155,158.30401066923142 79.16000047683715,191.58401066923142 125.24000047683715,191.58401066923142 C148.28000047683716,191.58401066923142 184.37600047683716,177.2480106692314 184.37600047683716,157.53601066923142 C184.37600047683716,152.6720106692314 179.76800047683716,144.7360106692314 174.39200047683715,144.7360106692314 C169.01600047683715,144.7360106692314 159.54400047683717,156.25601066923142 140.34400047683715,156.25601066923142 C128.31200047683717,156.25601066923142 111.67200047683716,145.5040106692314 111.67200047683716,132.70401066923142 C111.67200047683716,128.35201066923142 115.76800047683716,129.12001066923142 118.58400047683716,129.12001066923142 H174.13600047683715 zM125.75200047683715,104.54401066923141 C119.09600047683716,104.54401066923141 110.39200047683715,106.59201066923141 110.39200047683715,97.37601066923142 C110.39200047683715,89.18401066923141 117.30400047683716,80.48001066923142 125.75200047683715,80.48001066923142 C135.22400047683715,80.48001066923142 140.85600047683715,87.64801066923141 140.85600047683715,96.86401066923142 C140.85600047683715,106.08001066923141 132.66400047683715,104.54401066923141 125.75200047683715,104.54401066923141 z" fill="white" id="svg_2" class=""/></g></svg>