<?xml version="1.0" encoding="UTF-8"?> <svg xmlns:xlink="http://www.w3.org/1999/xlink" xmlns="http://www.w3.org/2000/svg" width="823px" height="678px" viewBox="0 0 823 678" version="1.1"><desc>Created with Lunacy</desc><defs><path d="M0 0L823 0L823 678L0 678L0 0Z" id="path_1"></path><path d="M0 0L239.33 0L239.33 38.8217L0 38.8217L0 0L0 0Z" id="path_2"></path><path d="M0 0L823 0L823 823L0 823L0 0L0 0Z" id="path_3"></path><clipPath id="mask_1"><use xlink:href="#path_1"></use></clipPath><clipPath id="mask_2"><use xlink:href="#path_2"></use></clipPath><clipPath id="mask_3"><use xlink:href="#path_3"></use></clipPath></defs><g id="cloud-online-backup"><path d="M0 0L823 0L823 678L0 678L0 0Z" id="Background" fill="none" stroke="none"></path><g clip-path="url(#mask_1)"><g id="cloud-firewall-100" transform="translate(0 -145)"><g id="eazybackup-logo" transform="translate(291.8351 545.9999)"><path d="M87.68 12.3555C84.3219 6.30721 78.3517 1.85597 71.6013 0.428851C69.1927 -0.080869 64.4439 -0.148817 62.2387 0.292898C59.8643 0.768645 56.5402 1.99187 54.437 3.18112C49.6541 5.8655 46.1262 9.80708 43.1751 15.7194C42.1574 17.7921 41.2754 19.525 41.2076 19.593C41.1736 19.627 39.4097 18.9135 37.3405 17.962C32.1166 15.5835 30.0813 15.1078 25.6036 15.1078C21.126 15.1078 17.8695 15.9233 13.8328 18.03C9.11767 20.4765 4.47043 25.5393 2.16376 30.7041C-0.651736 37.1262 -0.719577 45.4511 1.96023 51.9072C3.3171 55.1352 5.01318 57.5476 8.47318 61.2174L11.4583 64.3777L8.43926 67.7072C3.92769 72.7024 1.96023 76.3038 0.874737 81.5709C-0.889188 90.1675 1.55317 98.9681 7.38771 105.085C13.5954 111.506 21.4652 113.647 31.5399 111.642C33.8805 111.167 35.814 110.827 35.8479 110.861C35.9158 110.928 36.0854 112.526 36.289 114.496C36.8656 120.443 37.544 123.195 39.308 126.865C42.1235 132.675 47.0082 137.093 52.7749 139.098C56.3705 140.321 62.1373 140.626 65.9024 139.811C69.4982 138.996 73.8742 136.753 77.7413 133.695C79.5731 132.268 81.1336 131.112 81.2015 131.112C81.3029 131.112 82.5921 132.845 84.0506 134.952C87.4766 139.777 90.1229 142.257 94.1256 144.228C98.162 146.233 101.249 146.845 105.828 146.641C116.921 146.097 126.08 138.689 129.438 127.544C130.252 124.894 130.354 123.909 130.354 120.069C130.354 117.419 130.116 114.633 129.811 113.103C129.506 111.71 129.302 110.555 129.336 110.521C129.353 110.521 129.792 110.305 130.482 109.967C131.133 109.647 132.01 109.216 132.966 108.754C138.868 105.832 142.701 102.196 145.483 96.7935C147.688 92.5462 148.4 89.5558 148.4 84.3908C148.366 79.4304 147.688 76.338 145.822 72.6003C143.074 67.1298 139.682 63.9695 133.271 60.8099L128.658 58.5668L130.15 54.999C132.457 49.4948 133.067 46.4705 132.864 41.5774C132.695 36.9903 132.118 34.5438 130.387 30.976C127.267 24.452 121.432 19.695 114.309 17.928C111.934 17.3164 110.781 17.2145 107.694 17.3504C103.318 17.5543 100.571 18.3698 95.3128 21.0202C93.481 21.9376 91.8863 22.5832 91.7848 22.4473C91.717 22.3113 91.0046 20.4425 90.2243 18.3018C89.444 16.1611 88.291 13.4768 87.68 12.3555ZM110.14 63.727C110.14 73.5226 105.688 74.8583 100.94 74.8583L68.7367 74.8583C68.5292 74.8583 68.3095 74.8513 68.0846 74.8438C66.5391 74.7928 64.7299 74.7337 64.7299 76.9361C64.7299 84.357 74.3759 90.5905 81.3507 90.5905C88.6293 90.5905 93.4963 87.7341 96.8643 85.7577C98.6468 84.7112 100.01 83.9118 101.088 83.9118C104.204 83.9118 106.875 88.5127 106.875 91.3326C106.875 102.761 85.9511 111.072 72.5951 111.072C45.8832 111.072 32.082 91.7779 32.082 72.632C32.082 49.7758 51.5224 33.1531 73.7823 33.1531C99.0103 33.1531 110.14 52.5957 110.14 63.727ZM71.0797 60.6644C71.7011 60.6366 72.3167 60.6088 72.9051 60.6088C73.4054 60.6088 73.9167 60.6227 74.4291 60.6366C78.0232 60.734 81.6608 60.8325 81.6608 56.1563C81.6608 50.8133 78.3959 46.6576 72.9051 46.6576C68.0079 46.6576 64.0011 51.7038 64.0011 56.4531C64.0011 60.9815 67.6253 60.8192 71.0797 60.6644Z" transform="translate(45.16486 103.3221)" id="Shape" fill="#FFFFFF" fill-rule="evenodd" stroke="none"></path><path d="M0 0L239.33 0L239.33 38.8217L0 38.8217L0 0L0 0Z" id="Background" fill="none" stroke="none"></path><g id="Mask-group"><path d="M0 0L239.33 0L239.33 38.8217L0 38.8217L0 0L0 0Z" id="path_1" fill="none" stroke="none"></path><g clip-path="url(#mask_2)"><g id="Group" transform="translate(0.2828979 3.993896)"><path d="M170.528 31.7297L171.209 31.7297C172.844 31.7297 174.023 31.0034 174.023 28.6884L174.023 21.3801L180.969 29.7778C182.103 31.3212 183.419 31.8205 184.6 31.8205C186.643 31.8205 188.278 29.9594 188.095 29.6416L180.197 19.9729L187.187 11.3029C187.37 10.9851 185.825 9.124 183.783 9.124C182.648 9.124 181.286 9.66871 180.242 11.1667L174.023 19.0197L174.023 5.12941C174.023 0.998647 171.936 0 170.028 0C168.759 0 167.624 0.499323 167.624 0.726288L167.624 28.6884C167.624 31.0488 168.803 31.7297 170.528 31.7297ZM106.683 31.5481L97.1501 31.5481C94.9712 31.5481 93.6548 30.1863 93.6548 27.8259L93.6548 5.90106C93.6548 3.54062 94.9712 2.17883 97.1501 2.17883L107.227 2.17883C113.855 2.17883 117.441 4.85702 117.441 9.66868C117.441 12.9824 115.58 14.9797 112.175 15.9329C116.533 16.9316 118.53 19.6551 118.53 23.1958C118.53 28.8699 114.944 31.5481 106.683 31.5481ZM100.282 14.5257L100.282 7.17206L105.639 7.17206C108.907 7.17206 110.541 8.35227 110.541 10.7581C110.541 13.1185 108.725 14.5257 105.639 14.5257L100.282 14.5257ZM21.5617 27.0542C21.5617 29.46 18.1572 32.1382 11.9838 32.1382C4.76627 32.1382 0 27.6443 0 20.6538C0 13.8902 4.85705 8.89697 11.5752 8.89697C18.1118 8.89697 22.6057 13.4817 22.6057 19.9729L22.6057 20.4268C22.5603 21.5616 22.2426 22.1971 21.0624 22.1971L5.76492 22.1971C6.21885 25.5108 8.76085 27.4627 12.2107 27.4627C15.5698 27.4627 17.4309 25.9648 18.475 24.1944C18.5203 24.1036 21.5617 24.5122 21.5617 27.0542ZM31.4383 32.0474C34.7066 32.0474 37.521 30.6856 39.1097 28.3705C39.4729 30.7764 40.8347 31.8658 42.8774 31.8658C44.103 31.8658 45.2832 31.4573 45.2832 31.1395L45.2832 18.021C45.2832 12.0745 41.8333 8.89697 34.8428 8.89697C28.0793 8.89697 24.811 11.6205 24.811 14.3895C24.811 17.3401 28.9417 17.2039 28.9417 17.1131C29.7588 15.3882 31.3476 13.7086 34.4343 13.7086C37.3848 13.7086 38.9736 15.252 38.9736 18.1117L38.2473 18.1117C28.5332 18.2479 23.9939 20.563 23.9939 25.647C23.9939 29.4146 26.8083 32.0474 31.4383 32.0474ZM127.854 32.0474C131.122 32.0474 133.936 30.6856 135.524 28.3705C135.888 30.7764 137.25 31.8658 139.292 31.8658C140.518 31.8658 141.698 31.4573 141.698 31.1395L141.698 18.021C141.698 12.0745 138.248 8.89697 131.258 8.89697C124.493 8.89697 121.225 11.6205 121.225 14.3895C121.225 17.3401 125.357 17.2039 125.357 17.1131C126.174 15.3882 127.763 13.7086 130.848 13.7086C133.799 13.7086 135.388 15.252 135.388 18.1117L134.663 18.1117C124.947 18.2479 120.409 20.563 120.409 25.647C120.409 29.4146 123.224 32.0474 127.854 32.0474ZM218.203 40.3997L218.884 40.3997C220.519 40.3997 221.698 39.628 221.698 37.3129L221.698 28.0982C222.833 30.3224 225.376 32.1381 228.78 32.1381C234.908 32.1381 239.13 27.3719 239.13 20.4722C239.13 13.3909 234.862 8.89697 228.871 8.89697C225.512 8.89697 223.016 10.4857 221.608 13.0277C221.2 9.9864 219.384 9.16933 217.705 9.16933C216.434 9.16933 215.299 9.71405 215.299 9.89562L215.299 37.3129C215.299 39.6734 216.478 40.3997 218.203 40.3997ZM155.8 32.1383C162.428 32.1383 165.242 28.2799 165.242 26.1918C165.242 23.4683 161.792 23.0597 161.701 23.3321C160.84 25.4655 159.114 27.0089 156.073 27.0089C152.577 27.0089 150.036 24.2853 150.036 20.4723C150.036 16.7501 152.577 14.0719 156.073 14.0719C159.205 14.0719 160.84 15.6153 161.701 17.7487C161.838 17.9757 165.242 17.5218 165.242 14.9344C165.242 12.8009 162.563 8.94251 155.8 8.94251C149.038 8.94251 144.135 13.7542 144.135 20.4723C144.135 27.3267 148.945 32.1383 155.8 32.1383ZM81.4884 37.1315C80.5351 39.5373 79.2641 40.2636 77.8569 40.2636C75.9958 40.2636 74.2709 38.8111 74.4525 38.4933L78.1293 30.141C77.0853 30.0048 76.4498 29.5963 76.0412 28.6884L68.4152 11.0305C68.279 10.6674 69.9586 9.16942 71.9105 9.12402C73.4084 9.12402 74.7248 9.85031 75.4965 12.3469L80.3082 25.0116L84.5751 12.3923C85.3468 9.8957 86.7086 9.12402 88.1158 9.12402C89.9315 9.12402 91.7018 10.622 91.5656 10.9397L81.4884 37.1315ZM209.088 31.7297C210.403 31.7297 211.494 31.2303 211.494 31.0034L211.494 12.256C211.494 9.8956 210.313 9.16931 208.588 9.16931L207.953 9.16931C206.274 9.16931 205.093 9.94099 205.093 12.256L205.093 23.8767C204.185 25.6016 202.46 26.7818 200.326 26.7818C197.649 26.7818 196.151 24.9661 196.151 22.0155L196.151 12.256C196.151 9.8956 194.925 9.16931 193.244 9.16931L192.563 9.16931C190.93 9.16931 189.749 9.94099 189.749 12.256L189.749 22.9688C189.749 28.0528 192.156 32.1382 197.966 32.1382C201.415 32.1382 203.685 30.504 205.229 28.2344C205.727 31.0488 207.499 31.7297 209.088 31.7297ZM50.2617 31.5481L65.1053 31.5481C66.8756 31.5481 67.6927 30.731 67.6927 29.1877L67.6927 28.9153C67.6927 27.3266 66.8756 26.6003 65.1053 26.6003L55.7089 26.6003L65.877 14.8889C66.8756 13.7994 67.2841 13.3001 67.2841 11.9383L67.2841 11.6206C67.2841 10.4857 66.5578 9.3963 64.8329 9.3963L50.5795 9.3963C48.8091 9.3963 47.9921 10.2134 47.9921 11.7113L47.9921 12.0291C47.9921 13.6179 48.8091 14.3441 50.5795 14.3441L59.1588 14.3441L49.2631 25.874C48.2644 27.0088 47.8559 27.4627 47.8559 28.9153L47.8559 29.2785C47.8559 30.4133 48.5368 31.5481 50.2617 31.5481ZM11.4843 13.3456C14.5711 13.3456 16.523 15.3883 16.6591 18.475L5.76483 18.475C6.21876 15.479 8.48841 13.3456 11.4843 13.3456ZM221.698 21.9701C221.79 24.9661 224.195 27.0541 227.238 27.0541C230.687 27.0541 232.956 24.4214 232.956 20.5176C232.956 16.6592 230.642 14.0264 227.282 14.0264C224.604 14.0264 222.652 15.4335 221.698 17.6578L221.698 21.9701ZM100.282 26.555L100.282 18.7928L106.047 18.7928C109.86 18.7928 111.676 19.973 111.676 22.5604C111.676 25.3748 109.996 26.555 106.002 26.555L100.282 26.555ZM30.1219 25.1932C30.1219 26.8273 31.4383 27.8714 33.5718 27.8714C36.7493 27.8714 38.9736 25.7833 38.9736 22.8781L38.9736 21.6071L37.7934 21.6525C32.7547 21.7887 30.1219 22.7873 30.1219 25.1932ZM126.536 25.1932C126.536 26.8273 127.854 27.8714 129.987 27.8714C133.164 27.8714 135.388 25.7833 135.388 22.8781L135.388 21.6071L134.208 21.6525C129.169 21.7887 126.536 22.7873 126.536 25.1932Z" id="Shape#1" fill="#FFFFFF" fill-rule="evenodd" stroke="none"></path></g></g></g></g><path d="M0 0L823 0L823 823L0 823L0 0L0 0Z" id="Background#1" fill="none" stroke="none"></path><g id="Mask-group"><path d="M0 0L823 0L823 823L0 823L0 0L0 0Z" id="path_2" fill="none" stroke="none"></path><g clip-path="url(#mask_3)"><g id="Group" transform="translate(0 147.64)"><path d="M164.6 0C139.91 0 123.463 8.22356 103.711 18.0996C83.9588 27.9756 59.2688 39.504 13.1809 49.38L0 52.6591L0 65.84C0 279.82 151.432 357.188 156.37 360.48L164.6 363.76L172.83 360.48C179.414 357.188 329.2 273.236 329.2 65.84L329.2 52.6591L316.019 49.38C269.931 39.504 245.241 27.9756 225.489 18.0996C205.737 8.22356 189.29 0 164.6 0ZM164.6 32.92C182.706 32.92 192.595 37.8645 210.701 47.7405C230.453 55.9705 255.13 69.1128 296.28 78.9888C291.342 232.067 192.582 307.783 164.6 325.889C134.972 309.429 37.858 238.651 32.92 78.9888C75.716 69.1128 100.393 55.9705 118.499 47.7405C136.605 37.8645 146.494 32.92 164.6 32.92Z" transform="translate(246.9 311.1004)" id="Shape#2" fill="#FFFFFF" fill-rule="evenodd" stroke="none"></path><path d="M477.211 0C393.841 0 323.132 43.9893 287.825 116.249C269.735 104.858 247.914 98.76 224.525 98.76C164.66 98.76 118.923 144.3 115.252 205.943C41.8076 230.781 9.74628e-15 289.039 0 367.553C0 455.301 71.4022 526.72 159.167 526.72L240.92 526.72C236.855 516.284 233.169 505.306 229.893 493.8L159.167 493.8C89.5411 493.8 32.92 437.162 32.92 367.553C32.92 276.101 97.5515 244.609 136.084 233.976L148.59 230.536L147.915 213.98C147.915 167.053 180.873 131.68 224.525 131.68C247.684 131.68 268.407 139.636 282.842 154.087L301.006 172.283L309.911 148.204C336.247 77.0971 400.343 32.8878 477.211 32.8878C578.802 32.9043 658.4 112.455 658.4 213.98C658.4 220.778 657.895 228.034 656.825 236.741L655.507 255.162L674.121 255.162C734.825 255.162 790.08 314.758 790.08 380.22C790.08 442.85 739.098 493.8 676.467 493.8L592.174 493.8C588.767 505.223 584.991 516.235 580.794 526.72L676.5 526.72C757.285 526.72 823 461.005 823 380.22C823 302.38 763.52 233.388 691.063 223.496C691.244 220.237 691.32 217.074 691.32 213.98C691.32 93.9866 597.271 0 477.211 0L477.211 0L477.211 0Z" id="Shape-path" fill="#FFFFFF" stroke="none"></path></g></g></g></g></g></g></svg> 