<?xml version="1.0" encoding="utf-8"?>
<svg xmlns="http://www.w3.org/2000/svg" width="195.203" height="79.3" viewBox="0 0 195.203 79.3" fill="none" aria-hidden="true">
  <path d="M20.5032 6.39999C18.0032 1 12.0032 -1.39999 6.30322 1.10001C0.60321 3.60001 -1.49677 9.89999 1.10321 15.3C1.10321 15.3 24.9032 67 24.9032 67C28.6032 75.1 32.6032 79.3 40.0032 79.3C47.9032 79.3 51.4032 74.7 55.1032 67C55.1032 67 75.8032 21.8 76.1032 21.3C76.3032 20.8 77.0032 19.4 79.1032 19.4C80.9032 19.4 82.4032 20.8 82.4032 22.7C82.4032 22.7 82.4032 66.9 82.4032 66.9C82.4032 73.7 86.2032 79.3 93.4032 79.3C100.703 79.3 104.603 73.7 104.603 66.9C104.603 66.9 104.603 30.7 104.603 30.7C104.603 23.7 109.603 19.2 116.403 19.2C123.203 19.2 127.703 23.9 127.703 30.7C127.703 30.7 127.703 66.9 127.703 66.9C127.703 73.7 131.503 79.3 138.703 79.3C146.003 79.3 149.903 73.7 149.903 66.9C149.903 66.9 149.903 30.7 149.903 30.7C149.903 23.7 154.903 19.2 161.703 19.2C168.503 19.2 173.003 23.9 173.003 30.7C173.003 30.7 173.003 66.9 173.003 66.9C173.003 73.7 176.803 79.3 184.003 79.3C191.303 79.3 195.203 73.7 195.203 66.9C195.203 66.9 195.203 25.7 195.203 25.7C195.203 10.6 183.003 0 168.403 0C153.803 0 144.603 10.1 144.603 10.1C139.703 3.80002 133.003 0 121.703 0C109.703 0 99.2032 10.1 99.2032 10.1C94.3032 3.80002 86.0032 0 79.2032 0C68.6032 0 60.2032 4.70001 55.0032 16.4C55.0032 16.4 39.8032 52.2 39.8032 52.2L20.5032 6.39999C20.5032 6.39999 20.5032 6.39999 20.5032 6.39999Z" fill="currentColor"/>
</svg>
